{"title":"La.Fee.2011.DVDRip.XviD.HORiZON-ArtSubs","uid":7154896,"size":1465939156,"categoryP":"video","categoryS":"movies","magnet":"?xt=urn:btih:78b7e304f427bc6af071236400e0718c84b11095&amp;dn=La.Fee.2011.DVDRip.XviD.HORiZON-ArtSubs&amp;tr=udp%3A%2F%2Ftracker.openbittorrent.com%3A80&amp;tr=udp%3A%2F%2Fopen.demonii.com%3A1337&amp;tr=udp%3A%2F%2Ftracker.coppersurfer.tk%3A6969&amp;tr=udp%3A%2F%2Fexodus.desync.com%3A6969","seeders":1,"leechers":0,"uploader":"lletaif","files":2,"time":1333425780,"description":"Title: La Fee Aka The Fairy\n\nCountry: France/2011\n\nLanguage: French\n\nSubtitle: Spanish\n\nDirectors: Dominique Abel, Fiona Gordon\n\nWriters: Dominique Abel (screenplay), Fiona Gordon (screenplay)\n\nStars: Dominique Abel, Fiona Gordon and Bruno Romy\n\nPlot: Dom works the night shift in a small hotel near the industrial sea port of Le Havre. One night, a woman arrives with no luggage and no shoes. Her name is Fiona and she tells Dom that she is a fairy that can grant him three wishes. Fiona makes two of his wishes come true then mysteriously disappears. Dom. who has fallen in love with her by then, searches for her everywhere.\n\n\nRip Specs:\n\n\nGeneral\nComplete name                    : La.Fee.2011.DVDRip.XviD.HORiZON-ArtSubs\nFormat                           : AVI\nFormat/Info                      : Audio Video Interleave\nFile size                        : 1.37 GiB\nDuration                         : 1h 30mn\nOverall bit rate                 : 2 169 Kbps\nWriting application              : FairUse Wizard - http://fairusewizard.com\nWriting library                  : The best and REALLY easy backup tool\n\nVideo\nID                               : 0\nFormat                           : MPEG-4 Visual\nFormat profile                   : Advanced Simple@L5\nFormat settings, BVOP            : 1\nFormat settings, QPel            : No\nFormat settings, GMC             : No warppoints\nFormat settings, Matrix          : Default (MPEG)\nMuxing mode                      : Packed bitstream\nCodec ID                         : XVID\nCodec ID/Hint                    : XviD\nDuration                         : 1h 30mn\nBit rate                         : 1 711 Kbps\nWidth                            : 688 pixels\nHeight                           : 384 pixels\nDisplay aspect ratio             : 16:9\nFrame rate                       : 25.000 fps\nColor space                      : YUV\nChroma subsampling               : 4:2:0\nBit depth                        : 8 bits\nScan type                        : Progressive\nCompression mode                 : Lossy\nBits/(Pixel*Frame)               : 0.259\nStream size                      : 1.08 GiB (79%)\nWriting library                  : XviD 1.2.0.dev47 (UTC 2006-11-01)\n\nAudio\nID                               : 1\nFormat                           : AC-3\nFormat/Info                      : Audio Coding 3\nMode extension                   : CM (complete main)\nCodec ID                         : 2000\nDuration                         : 1h 30mn\nBit rate mode                    : Constant\nBit rate                         : 448 Kbps\nChannel(s)                       : 6 channels\nChannel positions                : Front: L C R, Side: L R, LFE\nSampling rate                    : 48.0 KHz\nBit depth                        : 16 bits\nCompression mode                 : Lossy\nStream size                      : 289 MiB (21%)\nAlignment                        : Split accross interleaves\nInterleave, duration             : 40 ms (1.00 video frame)\nInterleave, preload duration     : 500 ms\n","torrent":{"xt":"urn:btih:78b7e304f427bc6af071236400e0718c84b11095","amp;dn":"La.Fee.2011.DVDRip.XviD.HORiZON-ArtSubs","amp;tr":["udp%3A%2F%2Ftracker.openbittorrent.com%3A80","udp%3A%2F%2Fopen.demonii.com%3A1337","udp%3A%2F%2Ftracker.coppersurfer.tk%3A6969","udp%3A%2F%2Fexodus.desync.com%3A6969"],"infoHash":"78b7e304f427bc6af071236400e0718c84b11095","infoHashBuffer":{"type":"Buffer","data":[120,183,227,4,244,39,188,106,240,113,35,100,0,224,113,140,132,177,16,149]},"announce":[],"urlList":[]}}